<mxfile host="app.diagrams.net" agent="Mozilla/5.0 (Windows NT 10.0; Win64; x64) AppleWebKit/537.36 (KHTML, like Gecko) Chrome/138.0.0.0 Safari/537.36" version="28.0.7" pages="4">
  <diagram id="wKfd2A_yz4hzKs8N8qcp" name="er">
    <mxGraphModel dx="2940" dy="1664" grid="1" gridSize="10" guides="1" tooltips="1" connect="1" arrows="1" fold="1" page="1" pageScale="1" pageWidth="2336" pageHeight="1654" math="0" shadow="0">
      <root>
        <mxCell id="0" />
        <mxCell id="1" parent="0" />
        <mxCell id="pS-5r-Skhq1tpL26T9QB-78" value="m" style="edgeStyle=none;shape=connector;rounded=0;orthogonalLoop=1;jettySize=auto;html=1;exitX=1;exitY=0;exitDx=0;exitDy=0;entryX=0.5;entryY=1;entryDx=0;entryDy=0;strokeColor=default;align=center;verticalAlign=middle;fontFamily=Helvetica;fontSize=20;fontColor=default;labelBackgroundColor=default;endArrow=none;endFill=0;" edge="1" parent="1" source="pS-5r-Skhq1tpL26T9QB-1" target="pS-5r-Skhq1tpL26T9QB-77">
          <mxGeometry relative="1" as="geometry" />
        </mxCell>
        <mxCell id="pS-5r-Skhq1tpL26T9QB-85" value="n" style="edgeStyle=none;shape=connector;rounded=0;orthogonalLoop=1;jettySize=auto;html=1;exitX=1;exitY=0.5;exitDx=0;exitDy=0;entryX=0;entryY=0.5;entryDx=0;entryDy=0;strokeColor=default;align=center;verticalAlign=middle;fontFamily=Helvetica;fontSize=20;fontColor=default;labelBackgroundColor=default;startArrow=none;endArrow=none;endFill=0;" edge="1" parent="1" source="pS-5r-Skhq1tpL26T9QB-1" target="pS-5r-Skhq1tpL26T9QB-84">
          <mxGeometry relative="1" as="geometry" />
        </mxCell>
        <mxCell id="pS-5r-Skhq1tpL26T9QB-1" value="Bill" style="whiteSpace=wrap;strokeWidth=2;fontSize=20;" vertex="1" parent="1">
          <mxGeometry x="696" y="962" width="50" height="40" as="geometry" />
        </mxCell>
        <mxCell id="pS-5r-Skhq1tpL26T9QB-88" value="1" style="edgeStyle=none;shape=connector;rounded=0;orthogonalLoop=1;jettySize=auto;html=1;exitX=1;exitY=0.5;exitDx=0;exitDy=0;entryX=0;entryY=0.5;entryDx=0;entryDy=0;strokeColor=default;align=center;verticalAlign=middle;fontFamily=Helvetica;fontSize=20;fontColor=default;labelBackgroundColor=default;startArrow=none;endArrow=none;endFill=0;" edge="1" parent="1" source="pS-5r-Skhq1tpL26T9QB-2" target="pS-5r-Skhq1tpL26T9QB-87">
          <mxGeometry relative="1" as="geometry">
            <mxPoint x="1667" y="1150" as="targetPoint" />
          </mxGeometry>
        </mxCell>
        <mxCell id="pS-5r-Skhq1tpL26T9QB-2" value="Bill Item" style="whiteSpace=wrap;strokeWidth=2;fontSize=20;" vertex="1" parent="1">
          <mxGeometry x="1468" y="1177" width="90" height="40" as="geometry" />
        </mxCell>
        <mxCell id="pS-5r-Skhq1tpL26T9QB-82" value="1" style="edgeStyle=none;shape=connector;rounded=0;orthogonalLoop=1;jettySize=auto;html=1;exitX=0.5;exitY=1;exitDx=0;exitDy=0;entryX=0.5;entryY=0;entryDx=0;entryDy=0;strokeColor=default;align=center;verticalAlign=middle;fontFamily=Helvetica;fontSize=20;fontColor=default;labelBackgroundColor=default;startArrow=none;endArrow=none;endFill=0;" edge="1" parent="1" source="pS-5r-Skhq1tpL26T9QB-3" target="pS-5r-Skhq1tpL26T9QB-81">
          <mxGeometry relative="1" as="geometry" />
        </mxCell>
        <mxCell id="pS-5r-Skhq1tpL26T9QB-3" value="Customer" style="whiteSpace=wrap;strokeWidth=2;fontSize=20;" vertex="1" parent="1">
          <mxGeometry x="621" y="377" width="110" height="40" as="geometry" />
        </mxCell>
        <mxCell id="pS-5r-Skhq1tpL26T9QB-4" value="Help" style="whiteSpace=wrap;strokeWidth=2;fontSize=20;" vertex="1" parent="1">
          <mxGeometry x="403" y="114" width="60" height="40" as="geometry" />
        </mxCell>
        <mxCell id="pS-5r-Skhq1tpL26T9QB-5" value="Item" style="whiteSpace=wrap;strokeWidth=2;fontSize=20;" vertex="1" parent="1">
          <mxGeometry x="1918" y="842" width="60" height="40" as="geometry" />
        </mxCell>
        <mxCell id="pS-5r-Skhq1tpL26T9QB-6" value="User" style="whiteSpace=wrap;strokeWidth=2;fontSize=20;" vertex="1" parent="1">
          <mxGeometry x="1793" y="138" width="70" height="40" as="geometry" />
        </mxCell>
        <mxCell id="pS-5r-Skhq1tpL26T9QB-7" value="bill_id" style="ellipse;aspect=fixed;strokeWidth=2;whiteSpace=wrap;fontStyle=4;fontSize=20;" vertex="1" parent="1">
          <mxGeometry x="137" y="1108" width="70" height="70" as="geometry" />
        </mxCell>
        <mxCell id="pS-5r-Skhq1tpL26T9QB-8" value="bill_date" style="ellipse;aspect=fixed;strokeWidth=2;whiteSpace=wrap;fontSize=20;" vertex="1" parent="1">
          <mxGeometry x="252" y="1093" width="100" height="100" as="geometry" />
        </mxCell>
        <mxCell id="pS-5r-Skhq1tpL26T9QB-9" value="total_amount" style="ellipse;aspect=fixed;strokeWidth=2;whiteSpace=wrap;fontSize=20;" vertex="1" parent="1">
          <mxGeometry x="376" y="1072" width="140" height="140" as="geometry" />
        </mxCell>
        <mxCell id="pS-5r-Skhq1tpL26T9QB-10" value="account_number FK" style="ellipse;aspect=fixed;strokeWidth=2;whiteSpace=wrap;fontSize=20;" vertex="1" parent="1">
          <mxGeometry x="531" y="1043" width="200" height="200" as="geometry" />
        </mxCell>
        <mxCell id="pS-5r-Skhq1tpL26T9QB-11" value="calculated_by FK" style="ellipse;aspect=fixed;strokeWidth=2;whiteSpace=wrap;fontSize=20;" vertex="1" parent="1">
          <mxGeometry x="738" y="1052" width="180" height="180" as="geometry" />
        </mxCell>
        <mxCell id="pS-5r-Skhq1tpL26T9QB-12" value="bill_id" style="ellipse;aspect=fixed;strokeWidth=2;whiteSpace=wrap;fontStyle=4;fontSize=20;" vertex="1" parent="1">
          <mxGeometry x="1171" y="1300" width="70" height="70" as="geometry" />
        </mxCell>
        <mxCell id="pS-5r-Skhq1tpL26T9QB-14" value="quantity" style="ellipse;aspect=fixed;strokeWidth=2;whiteSpace=wrap;fontSize=20;" vertex="1" parent="1">
          <mxGeometry x="1475" y="1290" width="90" height="90" as="geometry" />
        </mxCell>
        <mxCell id="pS-5r-Skhq1tpL26T9QB-15" value="item_price" style="ellipse;aspect=fixed;strokeWidth=2;whiteSpace=wrap;fontSize=20;" vertex="1" parent="1">
          <mxGeometry x="1594" y="1275" width="120" height="120" as="geometry" />
        </mxCell>
        <mxCell id="pS-5r-Skhq1tpL26T9QB-16" value="account_number" style="ellipse;aspect=fixed;strokeWidth=2;whiteSpace=wrap;fontStyle=4;fontSize=20;" vertex="1" parent="1">
          <mxGeometry x="24" y="468" width="170" height="170" as="geometry" />
        </mxCell>
        <mxCell id="pS-5r-Skhq1tpL26T9QB-17" value="name" style="ellipse;aspect=fixed;strokeWidth=2;whiteSpace=wrap;fontSize=20;" vertex="1" parent="1">
          <mxGeometry x="229" y="518" width="70" height="70" as="geometry" />
        </mxCell>
        <mxCell id="pS-5r-Skhq1tpL26T9QB-18" value="email" style="ellipse;aspect=fixed;strokeWidth=2;whiteSpace=wrap;fontSize=20;" vertex="1" parent="1">
          <mxGeometry x="487" y="509" width="70" height="70" as="geometry" />
        </mxCell>
        <mxCell id="pS-5r-Skhq1tpL26T9QB-19" value="address" style="ellipse;aspect=fixed;strokeWidth=2;whiteSpace=wrap;fontSize=20;" vertex="1" parent="1">
          <mxGeometry x="588" y="499" width="90" height="90" as="geometry" />
        </mxCell>
        <mxCell id="pS-5r-Skhq1tpL26T9QB-20" value="telephone" style="ellipse;aspect=fixed;strokeWidth=2;whiteSpace=wrap;fontSize=20;" vertex="1" parent="1">
          <mxGeometry x="706" y="489" width="110" height="110" as="geometry" />
        </mxCell>
        <mxCell id="pS-5r-Skhq1tpL26T9QB-22" value="id" style="ellipse;aspect=fixed;strokeWidth=2;whiteSpace=wrap;fontStyle=4;fontSize=20;" vertex="1" parent="1">
          <mxGeometry x="220" y="230" width="40" height="40" as="geometry" />
        </mxCell>
        <mxCell id="pS-5r-Skhq1tpL26T9QB-23" value="question" style="ellipse;aspect=fixed;strokeWidth=2;whiteSpace=wrap;fontSize=20;" vertex="1" parent="1">
          <mxGeometry x="303" y="200" width="100" height="100" as="geometry" />
        </mxCell>
        <mxCell id="pS-5r-Skhq1tpL26T9QB-24" value="answer" style="ellipse;aspect=fixed;strokeWidth=2;whiteSpace=wrap;fontSize=20;" vertex="1" parent="1">
          <mxGeometry x="566" y="211" width="90" height="90" as="geometry" />
        </mxCell>
        <mxCell id="pS-5r-Skhq1tpL26T9QB-25" value="clue" style="ellipse;aspect=fixed;strokeWidth=2;whiteSpace=wrap;fontSize=20;" vertex="1" parent="1">
          <mxGeometry x="686" y="226" width="60" height="60" as="geometry" />
        </mxCell>
        <mxCell id="pS-5r-Skhq1tpL26T9QB-26" value="item_id" style="ellipse;aspect=fixed;strokeWidth=2;whiteSpace=wrap;fontStyle=4;fontSize=20;" vertex="1" parent="1">
          <mxGeometry x="1742" y="736" width="90" height="90" as="geometry" />
        </mxCell>
        <mxCell id="pS-5r-Skhq1tpL26T9QB-27" value="item_name" style="ellipse;aspect=fixed;strokeWidth=2;whiteSpace=wrap;fontSize=20;" vertex="1" parent="1">
          <mxGeometry x="1708" y="877" width="120" height="120" as="geometry" />
        </mxCell>
        <mxCell id="pS-5r-Skhq1tpL26T9QB-28" value="item_price" style="ellipse;aspect=fixed;strokeWidth=2;whiteSpace=wrap;fontSize=20;" vertex="1" parent="1">
          <mxGeometry x="2047" y="757" width="120" height="120" as="geometry" />
        </mxCell>
        <mxCell id="pS-5r-Skhq1tpL26T9QB-29" value="user_id" style="ellipse;aspect=fixed;strokeWidth=2;whiteSpace=wrap;fontStyle=4;fontSize=20;" vertex="1" parent="1">
          <mxGeometry x="1583" y="79" width="90" height="90" as="geometry" />
        </mxCell>
        <mxCell id="pS-5r-Skhq1tpL26T9QB-30" value="email" style="ellipse;aspect=fixed;strokeWidth=2;whiteSpace=wrap;fontSize=20;" vertex="1" parent="1">
          <mxGeometry x="1796" y="246" width="70" height="70" as="geometry" />
        </mxCell>
        <mxCell id="pS-5r-Skhq1tpL26T9QB-31" value="password" style="ellipse;aspect=fixed;strokeWidth=2;whiteSpace=wrap;fontSize=20;" vertex="1" parent="1">
          <mxGeometry x="1923" y="187" width="110" height="110" as="geometry" />
        </mxCell>
        <mxCell id="pS-5r-Skhq1tpL26T9QB-32" value="role" style="ellipse;aspect=fixed;strokeWidth=2;whiteSpace=wrap;fontSize=20;" vertex="1" parent="1">
          <mxGeometry x="2005" y="52" width="60" height="60" as="geometry" />
        </mxCell>
        <mxCell id="pS-5r-Skhq1tpL26T9QB-38" value="" style="startArrow=none;endArrow=none;exitX=-0.01;exitY=0.57;entryX=0.5;entryY=0;rounded=0;endFill=0;fontSize=20;" edge="1" parent="1" source="pS-5r-Skhq1tpL26T9QB-1" target="pS-5r-Skhq1tpL26T9QB-7">
          <mxGeometry relative="1" as="geometry" />
        </mxCell>
        <mxCell id="pS-5r-Skhq1tpL26T9QB-39" value="" style="startArrow=none;endArrow=none;exitX=-0.01;exitY=0.59;entryX=0.49;entryY=0;rounded=0;endFill=0;fontSize=20;" edge="1" parent="1" source="pS-5r-Skhq1tpL26T9QB-1" target="pS-5r-Skhq1tpL26T9QB-8">
          <mxGeometry relative="1" as="geometry" />
        </mxCell>
        <mxCell id="pS-5r-Skhq1tpL26T9QB-40" value="" style="startArrow=none;endArrow=none;exitX=-0.01;exitY=0.64;entryX=0.5;entryY=0;rounded=0;endFill=0;fontSize=20;" edge="1" parent="1" source="pS-5r-Skhq1tpL26T9QB-1" target="pS-5r-Skhq1tpL26T9QB-9">
          <mxGeometry relative="1" as="geometry" />
        </mxCell>
        <mxCell id="pS-5r-Skhq1tpL26T9QB-41" value="" style="startArrow=none;endArrow=none;exitX=-0.01;exitY=0.94;entryX=0.5;entryY=0;rounded=0;endFill=0;fontSize=20;" edge="1" parent="1" source="pS-5r-Skhq1tpL26T9QB-1" target="pS-5r-Skhq1tpL26T9QB-10">
          <mxGeometry relative="1" as="geometry" />
        </mxCell>
        <mxCell id="pS-5r-Skhq1tpL26T9QB-42" value="" style="startArrow=none;endArrow=none;exitX=1;exitY=0.86;entryX=0.5;entryY=0;rounded=0;endFill=0;fontSize=20;" edge="1" parent="1" source="pS-5r-Skhq1tpL26T9QB-1" target="pS-5r-Skhq1tpL26T9QB-11">
          <mxGeometry relative="1" as="geometry" />
        </mxCell>
        <mxCell id="pS-5r-Skhq1tpL26T9QB-43" value="" style="startArrow=none;endArrow=none;exitX=0;exitY=0.68;entryX=0.5;entryY=0;rounded=0;endFill=0;fontSize=20;" edge="1" parent="1" source="pS-5r-Skhq1tpL26T9QB-2" target="pS-5r-Skhq1tpL26T9QB-12">
          <mxGeometry relative="1" as="geometry" />
        </mxCell>
        <mxCell id="pS-5r-Skhq1tpL26T9QB-45" value="" style="startArrow=none;endArrow=none;exitX=0.53;exitY=1;entryX=0.5;entryY=0;rounded=0;endFill=0;fontSize=20;" edge="1" parent="1" source="pS-5r-Skhq1tpL26T9QB-2" target="pS-5r-Skhq1tpL26T9QB-14">
          <mxGeometry relative="1" as="geometry" />
        </mxCell>
        <mxCell id="pS-5r-Skhq1tpL26T9QB-46" value="" style="startArrow=none;endArrow=none;exitX=1;exitY=0.91;entryX=0.5;entryY=0;rounded=0;endFill=0;fontSize=20;" edge="1" parent="1" source="pS-5r-Skhq1tpL26T9QB-2" target="pS-5r-Skhq1tpL26T9QB-15">
          <mxGeometry relative="1" as="geometry" />
        </mxCell>
        <mxCell id="pS-5r-Skhq1tpL26T9QB-47" value="" style="startArrow=none;endArrow=none;exitX=0;exitY=0.61;entryX=0.5;entryY=0;rounded=0;endFill=0;fontSize=20;" edge="1" parent="1" source="pS-5r-Skhq1tpL26T9QB-3" target="pS-5r-Skhq1tpL26T9QB-16">
          <mxGeometry relative="1" as="geometry" />
        </mxCell>
        <mxCell id="pS-5r-Skhq1tpL26T9QB-48" value="" style="startArrow=none;endArrow=none;exitX=0;exitY=0.65;entryX=0.51;entryY=-0.01;rounded=0;endFill=0;fontSize=20;" edge="1" parent="1" source="pS-5r-Skhq1tpL26T9QB-3" target="pS-5r-Skhq1tpL26T9QB-17">
          <mxGeometry relative="1" as="geometry" />
        </mxCell>
        <mxCell id="pS-5r-Skhq1tpL26T9QB-49" value="" style="startArrow=none;endArrow=none;exitX=0;exitY=0.7;entryX=0.49;entryY=0.01;rounded=0;endFill=0;fontSize=20;" edge="1" parent="1" source="pS-5r-Skhq1tpL26T9QB-3" target="pS-5r-Skhq1tpL26T9QB-18">
          <mxGeometry relative="1" as="geometry" />
        </mxCell>
        <mxCell id="pS-5r-Skhq1tpL26T9QB-50" value="" style="startArrow=none;endArrow=none;exitX=0.362;exitY=1.059;entryX=0.51;entryY=0;rounded=0;endFill=0;exitDx=0;exitDy=0;exitPerimeter=0;fontSize=20;" edge="1" parent="1" source="pS-5r-Skhq1tpL26T9QB-3" target="pS-5r-Skhq1tpL26T9QB-19">
          <mxGeometry relative="1" as="geometry" />
        </mxCell>
        <mxCell id="pS-5r-Skhq1tpL26T9QB-51" value="" style="startArrow=none;endArrow=none;exitX=0.702;exitY=0.978;entryX=0.51;entryY=0;rounded=0;endFill=0;exitDx=0;exitDy=0;exitPerimeter=0;fontSize=20;" edge="1" parent="1" source="pS-5r-Skhq1tpL26T9QB-3" target="pS-5r-Skhq1tpL26T9QB-20">
          <mxGeometry relative="1" as="geometry" />
        </mxCell>
        <mxCell id="pS-5r-Skhq1tpL26T9QB-53" value="" style="startArrow=none;endArrow=none;exitX=0;exitY=0.5;entryX=0.5;entryY=0.01;rounded=0;endFill=0;exitDx=0;exitDy=0;fontSize=20;" edge="1" parent="1" source="pS-5r-Skhq1tpL26T9QB-4" target="pS-5r-Skhq1tpL26T9QB-22">
          <mxGeometry relative="1" as="geometry" />
        </mxCell>
        <mxCell id="pS-5r-Skhq1tpL26T9QB-54" value="" style="startArrow=none;endArrow=none;exitX=0.5;exitY=1;entryX=0.51;entryY=0;rounded=0;endFill=0;exitDx=0;exitDy=0;fontSize=20;" edge="1" parent="1" source="pS-5r-Skhq1tpL26T9QB-4" target="pS-5r-Skhq1tpL26T9QB-23">
          <mxGeometry relative="1" as="geometry" />
        </mxCell>
        <mxCell id="pS-5r-Skhq1tpL26T9QB-55" value="" style="startArrow=none;endArrow=none;exitX=0.75;exitY=1;entryX=0.5;entryY=0;rounded=0;endFill=0;exitDx=0;exitDy=0;fontSize=20;" edge="1" parent="1" source="pS-5r-Skhq1tpL26T9QB-4" target="pS-5r-Skhq1tpL26T9QB-24">
          <mxGeometry relative="1" as="geometry" />
        </mxCell>
        <mxCell id="pS-5r-Skhq1tpL26T9QB-56" value="" style="startArrow=none;endArrow=none;exitX=0.971;exitY=0.377;entryX=0.5;entryY=0.01;rounded=0;endFill=0;exitDx=0;exitDy=0;exitPerimeter=0;fontSize=20;" edge="1" parent="1" source="pS-5r-Skhq1tpL26T9QB-4" target="pS-5r-Skhq1tpL26T9QB-25">
          <mxGeometry relative="1" as="geometry" />
        </mxCell>
        <mxCell id="pS-5r-Skhq1tpL26T9QB-57" value="" style="startArrow=none;endArrow=none;exitX=0.5;exitY=0;entryX=0.957;entryY=0.348;rounded=0;endFill=0;entryDx=0;entryDy=0;entryPerimeter=0;exitDx=0;exitDy=0;fontSize=20;" edge="1" parent="1" source="pS-5r-Skhq1tpL26T9QB-5" target="pS-5r-Skhq1tpL26T9QB-26">
          <mxGeometry relative="1" as="geometry" />
        </mxCell>
        <mxCell id="pS-5r-Skhq1tpL26T9QB-58" value="" style="startArrow=none;endArrow=none;entryX=0.916;entryY=0.257;rounded=0;endFill=0;entryDx=0;entryDy=0;entryPerimeter=0;fontSize=20;" edge="1" parent="1" target="pS-5r-Skhq1tpL26T9QB-27">
          <mxGeometry relative="1" as="geometry">
            <mxPoint x="1901" y="890" as="sourcePoint" />
          </mxGeometry>
        </mxCell>
        <mxCell id="pS-5r-Skhq1tpL26T9QB-59" value="" style="startArrow=none;endArrow=none;exitX=1;exitY=0.5;entryX=0.031;entryY=0.576;rounded=0;endFill=0;exitDx=0;exitDy=0;entryDx=0;entryDy=0;entryPerimeter=0;fontSize=20;" edge="1" parent="1" source="pS-5r-Skhq1tpL26T9QB-5" target="pS-5r-Skhq1tpL26T9QB-28">
          <mxGeometry relative="1" as="geometry" />
        </mxCell>
        <mxCell id="pS-5r-Skhq1tpL26T9QB-60" value="" style="startArrow=none;endArrow=none;exitX=0;exitY=0;entryX=0.956;entryY=0.22;rounded=0;endFill=0;entryDx=0;entryDy=0;entryPerimeter=0;exitDx=0;exitDy=0;fontSize=20;" edge="1" parent="1" source="pS-5r-Skhq1tpL26T9QB-6" target="pS-5r-Skhq1tpL26T9QB-29">
          <mxGeometry relative="1" as="geometry" />
        </mxCell>
        <mxCell id="pS-5r-Skhq1tpL26T9QB-61" value="" style="startArrow=none;endArrow=none;exitX=0.52;exitY=1;entryX=0.5;entryY=-0.01;rounded=0;endFill=0;fontSize=20;" edge="1" parent="1" source="pS-5r-Skhq1tpL26T9QB-6" target="pS-5r-Skhq1tpL26T9QB-30">
          <mxGeometry relative="1" as="geometry" />
        </mxCell>
        <mxCell id="pS-5r-Skhq1tpL26T9QB-62" value="" style="startArrow=none;endArrow=none;exitX=1;exitY=0.87;entryX=0.5;entryY=-0.01;rounded=0;endFill=0;fontSize=20;" edge="1" parent="1" source="pS-5r-Skhq1tpL26T9QB-6" target="pS-5r-Skhq1tpL26T9QB-31">
          <mxGeometry relative="1" as="geometry" />
        </mxCell>
        <mxCell id="pS-5r-Skhq1tpL26T9QB-63" value="" style="startArrow=none;endArrow=none;entryX=0.5;entryY=0.01;rounded=0;endFill=0;fontSize=20;" edge="1" parent="1" source="pS-5r-Skhq1tpL26T9QB-6" target="pS-5r-Skhq1tpL26T9QB-32">
          <mxGeometry relative="1" as="geometry" />
        </mxCell>
        <mxCell id="pS-5r-Skhq1tpL26T9QB-67" value="1" style="curved=1;startArrow=none;endArrow=none;exitX=0;exitY=0.5;entryX=0.5;entryY=0;rounded=0;exitDx=0;exitDy=0;fontSize=20;" edge="1" parent="1" source="pS-5r-Skhq1tpL26T9QB-75" target="pS-5r-Skhq1tpL26T9QB-3">
          <mxGeometry relative="1" as="geometry">
            <Array as="points" />
            <mxPoint x="1065" y="459" as="sourcePoint" />
          </mxGeometry>
        </mxCell>
        <mxCell id="pS-5r-Skhq1tpL26T9QB-80" value="1" style="edgeStyle=none;shape=connector;rounded=0;orthogonalLoop=1;jettySize=auto;html=1;exitX=1;exitY=0.5;exitDx=0;exitDy=0;entryX=0;entryY=0.5;entryDx=0;entryDy=0;strokeColor=default;align=center;verticalAlign=middle;fontFamily=Helvetica;fontSize=20;fontColor=default;labelBackgroundColor=default;endArrow=none;endFill=0;" edge="1" parent="1" source="pS-5r-Skhq1tpL26T9QB-75" target="pS-5r-Skhq1tpL26T9QB-6">
          <mxGeometry relative="1" as="geometry" />
        </mxCell>
        <mxCell id="pS-5r-Skhq1tpL26T9QB-75" value="is" style="rhombus;whiteSpace=wrap;html=1;fontSize=20;" vertex="1" parent="1">
          <mxGeometry x="1130" y="232" width="40" height="40" as="geometry" />
        </mxCell>
        <mxCell id="pS-5r-Skhq1tpL26T9QB-79" value="1" style="edgeStyle=none;shape=connector;rounded=0;orthogonalLoop=1;jettySize=auto;html=1;exitX=0.5;exitY=0;exitDx=0;exitDy=0;entryX=0.25;entryY=1;entryDx=0;entryDy=0;strokeColor=default;align=center;verticalAlign=middle;fontFamily=Helvetica;fontSize=20;fontColor=default;labelBackgroundColor=default;endArrow=none;endFill=0;" edge="1" parent="1" source="pS-5r-Skhq1tpL26T9QB-77" target="pS-5r-Skhq1tpL26T9QB-6">
          <mxGeometry relative="1" as="geometry" />
        </mxCell>
        <mxCell id="pS-5r-Skhq1tpL26T9QB-77" value="calculated" style="rhombus;whiteSpace=wrap;html=1;fontSize=20;" vertex="1" parent="1">
          <mxGeometry x="1552" y="533" width="110" height="40" as="geometry" />
        </mxCell>
        <mxCell id="pS-5r-Skhq1tpL26T9QB-81" value="&lt;span style=&quot;background-color: rgb(236, 236, 236);&quot;&gt;has&lt;/span&gt;" style="rhombus;whiteSpace=wrap;html=1;fontFamily=Helvetica;fontSize=20;fontColor=default;labelBackgroundColor=default;" vertex="1" parent="1">
          <mxGeometry x="685.5" y="740" width="60" height="40" as="geometry" />
        </mxCell>
        <mxCell id="pS-5r-Skhq1tpL26T9QB-83" value="m" style="edgeStyle=none;shape=connector;rounded=0;orthogonalLoop=1;jettySize=auto;html=1;exitX=0.5;exitY=1;exitDx=0;exitDy=0;strokeColor=default;align=center;verticalAlign=middle;fontFamily=Helvetica;fontSize=20;fontColor=default;labelBackgroundColor=default;startArrow=none;endArrow=none;endFill=0;entryX=0.5;entryY=0;entryDx=0;entryDy=0;" edge="1" parent="1" source="pS-5r-Skhq1tpL26T9QB-81" target="pS-5r-Skhq1tpL26T9QB-1">
          <mxGeometry relative="1" as="geometry">
            <mxPoint x="1379" y="950" as="targetPoint" />
          </mxGeometry>
        </mxCell>
        <mxCell id="pS-5r-Skhq1tpL26T9QB-84" value="&lt;span style=&quot;background-color: rgb(236, 236, 236);&quot;&gt;contains&lt;/span&gt;" style="rhombus;whiteSpace=wrap;html=1;fontFamily=Helvetica;fontSize=20;fontColor=default;labelBackgroundColor=default;" vertex="1" parent="1">
          <mxGeometry x="1110" y="1050" width="100" height="40" as="geometry" />
        </mxCell>
        <mxCell id="pS-5r-Skhq1tpL26T9QB-86" value="m" style="edgeStyle=none;shape=connector;rounded=0;orthogonalLoop=1;jettySize=auto;html=1;exitX=1;exitY=0.5;exitDx=0;exitDy=0;entryX=0.386;entryY=0.028;entryDx=0;entryDy=0;entryPerimeter=0;strokeColor=default;align=center;verticalAlign=middle;fontFamily=Helvetica;fontSize=20;fontColor=default;labelBackgroundColor=default;startArrow=none;endArrow=none;endFill=0;" edge="1" parent="1" source="pS-5r-Skhq1tpL26T9QB-84" target="pS-5r-Skhq1tpL26T9QB-2">
          <mxGeometry relative="1" as="geometry" />
        </mxCell>
        <mxCell id="pS-5r-Skhq1tpL26T9QB-89" value="1" style="edgeStyle=none;shape=connector;rounded=0;orthogonalLoop=1;jettySize=auto;html=1;exitX=1;exitY=0.5;exitDx=0;exitDy=0;entryX=0.5;entryY=1;entryDx=0;entryDy=0;strokeColor=default;align=center;verticalAlign=middle;fontFamily=Helvetica;fontSize=20;fontColor=default;labelBackgroundColor=default;startArrow=none;endArrow=none;endFill=0;" edge="1" parent="1" source="pS-5r-Skhq1tpL26T9QB-87" target="pS-5r-Skhq1tpL26T9QB-5">
          <mxGeometry relative="1" as="geometry" />
        </mxCell>
        <mxCell id="pS-5r-Skhq1tpL26T9QB-87" value="&lt;span style=&quot;background-color: rgb(236, 236, 236);&quot;&gt;is_in&lt;/span&gt;" style="rhombus;whiteSpace=wrap;html=1;fontFamily=Helvetica;fontSize=20;fontColor=default;labelBackgroundColor=default;" vertex="1" parent="1">
          <mxGeometry x="1680" y="1130" width="60" height="40" as="geometry" />
        </mxCell>
      </root>
    </mxGraphModel>
  </diagram>
  <diagram id="jQYwlvMMSCY1NcK8YP1v" name="class">
    <mxGraphModel dx="2450" dy="1387" grid="1" gridSize="10" guides="1" tooltips="1" connect="1" arrows="1" fold="1" page="1" pageScale="1" pageWidth="2336" pageHeight="1654" math="0" shadow="0">
      <root>
        <mxCell id="0" />
        <mxCell id="1" parent="0" />
        <mxCell id="R7QKlzEL6FiSknRqJ6hg-1" value="Bill" style="swimlane;fontStyle=1;align=center;verticalAlign=top;childLayout=stackLayout;horizontal=1;startSize=32;horizontalStack=0;resizeParent=1;resizeParentMax=0;resizeLast=0;collapsible=0;marginBottom=0;fontSize=20;" vertex="1" parent="1">
          <mxGeometry x="820" y="880" width="260" height="272" as="geometry" />
        </mxCell>
        <mxCell id="R7QKlzEL6FiSknRqJ6hg-2" value="+int bill_id" style="text;strokeColor=none;fillColor=none;align=left;verticalAlign=top;spacingLeft=4;spacingRight=4;overflow=hidden;rotatable=0;points=[[0,0.5],[1,0.5]];portConstraint=eastwest;fontSize=20;" vertex="1" parent="R7QKlzEL6FiSknRqJ6hg-1">
          <mxGeometry y="32" width="260" height="40" as="geometry" />
        </mxCell>
        <mxCell id="R7QKlzEL6FiSknRqJ6hg-3" value="+date bill_date" style="text;strokeColor=none;fillColor=none;align=left;verticalAlign=top;spacingLeft=4;spacingRight=4;overflow=hidden;rotatable=0;points=[[0,0.5],[1,0.5]];portConstraint=eastwest;fontSize=20;" vertex="1" parent="R7QKlzEL6FiSknRqJ6hg-1">
          <mxGeometry y="72" width="260" height="40" as="geometry" />
        </mxCell>
        <mxCell id="R7QKlzEL6FiSknRqJ6hg-4" value="+decimal total_amount" style="text;strokeColor=none;fillColor=none;align=left;verticalAlign=top;spacingLeft=4;spacingRight=4;overflow=hidden;rotatable=0;points=[[0,0.5],[1,0.5]];portConstraint=eastwest;fontSize=20;" vertex="1" parent="R7QKlzEL6FiSknRqJ6hg-1">
          <mxGeometry y="112" width="260" height="40" as="geometry" />
        </mxCell>
        <mxCell id="R7QKlzEL6FiSknRqJ6hg-5" value="+varchar account_number" style="text;strokeColor=none;fillColor=none;align=left;verticalAlign=top;spacingLeft=4;spacingRight=4;overflow=hidden;rotatable=0;points=[[0,0.5],[1,0.5]];portConstraint=eastwest;fontSize=20;" vertex="1" parent="R7QKlzEL6FiSknRqJ6hg-1">
          <mxGeometry y="152" width="260" height="40" as="geometry" />
        </mxCell>
        <mxCell id="R7QKlzEL6FiSknRqJ6hg-6" value="+int calculated_by" style="text;strokeColor=none;fillColor=none;align=left;verticalAlign=top;spacingLeft=4;spacingRight=4;overflow=hidden;rotatable=0;points=[[0,0.5],[1,0.5]];portConstraint=eastwest;fontSize=20;" vertex="1" parent="R7QKlzEL6FiSknRqJ6hg-1">
          <mxGeometry y="192" width="260" height="40" as="geometry" />
        </mxCell>
        <mxCell id="R7QKlzEL6FiSknRqJ6hg-7" style="line;strokeWidth=1;fillColor=none;align=left;verticalAlign=middle;spacingTop=-1;spacingLeft=3;spacingRight=3;rotatable=0;labelPosition=right;points=[];portConstraint=eastwest;strokeColor=inherit;fontSize=20;" vertex="1" parent="R7QKlzEL6FiSknRqJ6hg-1">
          <mxGeometry y="232" width="260" height="40" as="geometry" />
        </mxCell>
        <mxCell id="R7QKlzEL6FiSknRqJ6hg-8" value="BillItem" style="swimlane;fontStyle=1;align=center;verticalAlign=top;childLayout=stackLayout;horizontal=1;startSize=33.45454545454545;horizontalStack=0;resizeParent=1;resizeParentMax=0;resizeLast=0;collapsible=0;marginBottom=0;fontSize=20;" vertex="1" parent="1">
          <mxGeometry x="1240" y="1310" width="200" height="233.45454545454544" as="geometry" />
        </mxCell>
        <mxCell id="R7QKlzEL6FiSknRqJ6hg-9" value="+varchar bill_id" style="text;strokeColor=none;fillColor=none;align=left;verticalAlign=top;spacingLeft=4;spacingRight=4;overflow=hidden;rotatable=0;points=[[0,0.5],[1,0.5]];portConstraint=eastwest;fontSize=20;" vertex="1" parent="R7QKlzEL6FiSknRqJ6hg-8">
          <mxGeometry y="33.45454545454545" width="200" height="40" as="geometry" />
        </mxCell>
        <mxCell id="R7QKlzEL6FiSknRqJ6hg-10" value="+varchar item_id" style="text;strokeColor=none;fillColor=none;align=left;verticalAlign=top;spacingLeft=4;spacingRight=4;overflow=hidden;rotatable=0;points=[[0,0.5],[1,0.5]];portConstraint=eastwest;fontSize=20;" vertex="1" parent="R7QKlzEL6FiSknRqJ6hg-8">
          <mxGeometry y="73.45454545454545" width="200" height="40" as="geometry" />
        </mxCell>
        <mxCell id="R7QKlzEL6FiSknRqJ6hg-11" value="+int quantity" style="text;strokeColor=none;fillColor=none;align=left;verticalAlign=top;spacingLeft=4;spacingRight=4;overflow=hidden;rotatable=0;points=[[0,0.5],[1,0.5]];portConstraint=eastwest;fontSize=20;" vertex="1" parent="R7QKlzEL6FiSknRqJ6hg-8">
          <mxGeometry y="113.45454545454545" width="200" height="40" as="geometry" />
        </mxCell>
        <mxCell id="R7QKlzEL6FiSknRqJ6hg-12" value="+double item_price" style="text;strokeColor=none;fillColor=none;align=left;verticalAlign=top;spacingLeft=4;spacingRight=4;overflow=hidden;rotatable=0;points=[[0,0.5],[1,0.5]];portConstraint=eastwest;fontSize=20;" vertex="1" parent="R7QKlzEL6FiSknRqJ6hg-8">
          <mxGeometry y="153.45454545454544" width="200" height="40" as="geometry" />
        </mxCell>
        <mxCell id="R7QKlzEL6FiSknRqJ6hg-13" style="line;strokeWidth=1;fillColor=none;align=left;verticalAlign=middle;spacingTop=-1;spacingLeft=3;spacingRight=3;rotatable=0;labelPosition=right;points=[];portConstraint=eastwest;strokeColor=inherit;fontSize=20;" vertex="1" parent="R7QKlzEL6FiSknRqJ6hg-8">
          <mxGeometry y="193.45454545454544" width="200" height="40" as="geometry" />
        </mxCell>
        <mxCell id="R7QKlzEL6FiSknRqJ6hg-14" value="Customer" style="swimlane;fontStyle=1;align=center;verticalAlign=top;childLayout=stackLayout;horizontal=1;startSize=30.933333333333334;horizontalStack=0;resizeParent=1;resizeParentMax=0;resizeLast=0;collapsible=0;marginBottom=0;fontSize=20;" vertex="1" parent="1">
          <mxGeometry x="560" y="460" width="212" height="310.93333333333334" as="geometry" />
        </mxCell>
        <mxCell id="R7QKlzEL6FiSknRqJ6hg-15" value="+int account_number" style="text;strokeColor=none;fillColor=none;align=left;verticalAlign=top;spacingLeft=4;spacingRight=4;overflow=hidden;rotatable=0;points=[[0,0.5],[1,0.5]];portConstraint=eastwest;fontSize=20;" vertex="1" parent="R7QKlzEL6FiSknRqJ6hg-14">
          <mxGeometry y="30.933333333333334" width="212" height="40" as="geometry" />
        </mxCell>
        <mxCell id="R7QKlzEL6FiSknRqJ6hg-16" value="+varchar name" style="text;strokeColor=none;fillColor=none;align=left;verticalAlign=top;spacingLeft=4;spacingRight=4;overflow=hidden;rotatable=0;points=[[0,0.5],[1,0.5]];portConstraint=eastwest;fontSize=20;" vertex="1" parent="R7QKlzEL6FiSknRqJ6hg-14">
          <mxGeometry y="70.93333333333334" width="212" height="40" as="geometry" />
        </mxCell>
        <mxCell id="R7QKlzEL6FiSknRqJ6hg-17" value="+varchar email" style="text;strokeColor=none;fillColor=none;align=left;verticalAlign=top;spacingLeft=4;spacingRight=4;overflow=hidden;rotatable=0;points=[[0,0.5],[1,0.5]];portConstraint=eastwest;fontSize=20;" vertex="1" parent="R7QKlzEL6FiSknRqJ6hg-14">
          <mxGeometry y="110.93333333333334" width="212" height="40" as="geometry" />
        </mxCell>
        <mxCell id="R7QKlzEL6FiSknRqJ6hg-18" value="+text address" style="text;strokeColor=none;fillColor=none;align=left;verticalAlign=top;spacingLeft=4;spacingRight=4;overflow=hidden;rotatable=0;points=[[0,0.5],[1,0.5]];portConstraint=eastwest;fontSize=20;" vertex="1" parent="R7QKlzEL6FiSknRqJ6hg-14">
          <mxGeometry y="150.93333333333334" width="212" height="40" as="geometry" />
        </mxCell>
        <mxCell id="R7QKlzEL6FiSknRqJ6hg-19" value="+varchar telephone" style="text;strokeColor=none;fillColor=none;align=left;verticalAlign=top;spacingLeft=4;spacingRight=4;overflow=hidden;rotatable=0;points=[[0,0.5],[1,0.5]];portConstraint=eastwest;fontSize=20;" vertex="1" parent="R7QKlzEL6FiSknRqJ6hg-14">
          <mxGeometry y="190.93333333333334" width="212" height="40" as="geometry" />
        </mxCell>
        <mxCell id="R7QKlzEL6FiSknRqJ6hg-20" value="+int user_id" style="text;strokeColor=none;fillColor=none;align=left;verticalAlign=top;spacingLeft=4;spacingRight=4;overflow=hidden;rotatable=0;points=[[0,0.5],[1,0.5]];portConstraint=eastwest;fontSize=20;" vertex="1" parent="R7QKlzEL6FiSknRqJ6hg-14">
          <mxGeometry y="230.93333333333334" width="212" height="40" as="geometry" />
        </mxCell>
        <mxCell id="R7QKlzEL6FiSknRqJ6hg-21" style="line;strokeWidth=1;fillColor=none;align=left;verticalAlign=middle;spacingTop=-1;spacingLeft=3;spacingRight=3;rotatable=0;labelPosition=right;points=[];portConstraint=eastwest;strokeColor=inherit;fontSize=20;" vertex="1" parent="R7QKlzEL6FiSknRqJ6hg-14">
          <mxGeometry y="270.93333333333334" width="212" height="40" as="geometry" />
        </mxCell>
        <mxCell id="R7QKlzEL6FiSknRqJ6hg-22" value="Help" style="swimlane;fontStyle=1;align=center;verticalAlign=top;childLayout=stackLayout;horizontal=1;startSize=33.45454545454545;horizontalStack=0;resizeParent=1;resizeParentMax=0;resizeLast=0;collapsible=0;marginBottom=0;fontSize=20;" vertex="1" parent="1">
          <mxGeometry x="480" y="120" width="190" height="233.45454545454544" as="geometry" />
        </mxCell>
        <mxCell id="R7QKlzEL6FiSknRqJ6hg-23" value="+int id" style="text;strokeColor=none;fillColor=none;align=left;verticalAlign=top;spacingLeft=4;spacingRight=4;overflow=hidden;rotatable=0;points=[[0,0.5],[1,0.5]];portConstraint=eastwest;fontSize=20;" vertex="1" parent="R7QKlzEL6FiSknRqJ6hg-22">
          <mxGeometry y="33.45454545454545" width="190" height="40" as="geometry" />
        </mxCell>
        <mxCell id="R7QKlzEL6FiSknRqJ6hg-24" value="+varchar question" style="text;strokeColor=none;fillColor=none;align=left;verticalAlign=top;spacingLeft=4;spacingRight=4;overflow=hidden;rotatable=0;points=[[0,0.5],[1,0.5]];portConstraint=eastwest;fontSize=20;" vertex="1" parent="R7QKlzEL6FiSknRqJ6hg-22">
          <mxGeometry y="73.45454545454545" width="190" height="40" as="geometry" />
        </mxCell>
        <mxCell id="R7QKlzEL6FiSknRqJ6hg-25" value="+text answer" style="text;strokeColor=none;fillColor=none;align=left;verticalAlign=top;spacingLeft=4;spacingRight=4;overflow=hidden;rotatable=0;points=[[0,0.5],[1,0.5]];portConstraint=eastwest;fontSize=20;" vertex="1" parent="R7QKlzEL6FiSknRqJ6hg-22">
          <mxGeometry y="113.45454545454545" width="190" height="40" as="geometry" />
        </mxCell>
        <mxCell id="R7QKlzEL6FiSknRqJ6hg-26" value="+varchar clue" style="text;strokeColor=none;fillColor=none;align=left;verticalAlign=top;spacingLeft=4;spacingRight=4;overflow=hidden;rotatable=0;points=[[0,0.5],[1,0.5]];portConstraint=eastwest;fontSize=20;" vertex="1" parent="R7QKlzEL6FiSknRqJ6hg-22">
          <mxGeometry y="153.45454545454544" width="190" height="40" as="geometry" />
        </mxCell>
        <mxCell id="R7QKlzEL6FiSknRqJ6hg-27" style="line;strokeWidth=1;fillColor=none;align=left;verticalAlign=middle;spacingTop=-1;spacingLeft=3;spacingRight=3;rotatable=0;labelPosition=right;points=[];portConstraint=eastwest;strokeColor=inherit;fontSize=20;" vertex="1" parent="R7QKlzEL6FiSknRqJ6hg-22">
          <mxGeometry y="193.45454545454544" width="190" height="40" as="geometry" />
        </mxCell>
        <mxCell id="R7QKlzEL6FiSknRqJ6hg-28" value="Item" style="swimlane;fontStyle=1;align=center;verticalAlign=top;childLayout=stackLayout;horizontal=1;startSize=35.55555555555556;horizontalStack=0;resizeParent=1;resizeParentMax=0;resizeLast=0;collapsible=0;marginBottom=0;fontSize=20;" vertex="1" parent="1">
          <mxGeometry x="1530" y="810" width="210" height="195.55555555555554" as="geometry" />
        </mxCell>
        <mxCell id="R7QKlzEL6FiSknRqJ6hg-29" value="+int item_id" style="text;strokeColor=none;fillColor=none;align=left;verticalAlign=top;spacingLeft=4;spacingRight=4;overflow=hidden;rotatable=0;points=[[0,0.5],[1,0.5]];portConstraint=eastwest;fontSize=20;" vertex="1" parent="R7QKlzEL6FiSknRqJ6hg-28">
          <mxGeometry y="35.55555555555556" width="210" height="40" as="geometry" />
        </mxCell>
        <mxCell id="R7QKlzEL6FiSknRqJ6hg-30" value="+varchar item_name" style="text;strokeColor=none;fillColor=none;align=left;verticalAlign=top;spacingLeft=4;spacingRight=4;overflow=hidden;rotatable=0;points=[[0,0.5],[1,0.5]];portConstraint=eastwest;fontSize=20;" vertex="1" parent="R7QKlzEL6FiSknRqJ6hg-28">
          <mxGeometry y="75.55555555555556" width="210" height="40" as="geometry" />
        </mxCell>
        <mxCell id="R7QKlzEL6FiSknRqJ6hg-31" value="+decimal item_price" style="text;strokeColor=none;fillColor=none;align=left;verticalAlign=top;spacingLeft=4;spacingRight=4;overflow=hidden;rotatable=0;points=[[0,0.5],[1,0.5]];portConstraint=eastwest;fontSize=20;" vertex="1" parent="R7QKlzEL6FiSknRqJ6hg-28">
          <mxGeometry y="115.55555555555556" width="210" height="40" as="geometry" />
        </mxCell>
        <mxCell id="R7QKlzEL6FiSknRqJ6hg-32" style="line;strokeWidth=1;fillColor=none;align=left;verticalAlign=middle;spacingTop=-1;spacingLeft=3;spacingRight=3;rotatable=0;labelPosition=right;points=[];portConstraint=eastwest;strokeColor=inherit;fontSize=20;" vertex="1" parent="R7QKlzEL6FiSknRqJ6hg-28">
          <mxGeometry y="155.55555555555554" width="210" height="40" as="geometry" />
        </mxCell>
        <mxCell id="R7QKlzEL6FiSknRqJ6hg-33" value="User" style="swimlane;fontStyle=1;align=center;verticalAlign=top;childLayout=stackLayout;horizontal=1;startSize=33.45454545454545;horizontalStack=0;resizeParent=1;resizeParentMax=0;resizeLast=0;collapsible=0;marginBottom=0;fontSize=20;" vertex="1" parent="1">
          <mxGeometry x="1080" y="110" width="200" height="233.45454545454544" as="geometry" />
        </mxCell>
        <mxCell id="R7QKlzEL6FiSknRqJ6hg-34" value="+int user_id" style="text;strokeColor=none;fillColor=none;align=left;verticalAlign=top;spacingLeft=4;spacingRight=4;overflow=hidden;rotatable=0;points=[[0,0.5],[1,0.5]];portConstraint=eastwest;fontSize=20;" vertex="1" parent="R7QKlzEL6FiSknRqJ6hg-33">
          <mxGeometry y="33.45454545454545" width="200" height="40" as="geometry" />
        </mxCell>
        <mxCell id="R7QKlzEL6FiSknRqJ6hg-35" value="+varchar email" style="text;strokeColor=none;fillColor=none;align=left;verticalAlign=top;spacingLeft=4;spacingRight=4;overflow=hidden;rotatable=0;points=[[0,0.5],[1,0.5]];portConstraint=eastwest;fontSize=20;" vertex="1" parent="R7QKlzEL6FiSknRqJ6hg-33">
          <mxGeometry y="73.45454545454545" width="200" height="40" as="geometry" />
        </mxCell>
        <mxCell id="R7QKlzEL6FiSknRqJ6hg-36" value="+varchar password" style="text;strokeColor=none;fillColor=none;align=left;verticalAlign=top;spacingLeft=4;spacingRight=4;overflow=hidden;rotatable=0;points=[[0,0.5],[1,0.5]];portConstraint=eastwest;fontSize=20;" vertex="1" parent="R7QKlzEL6FiSknRqJ6hg-33">
          <mxGeometry y="113.45454545454545" width="200" height="40" as="geometry" />
        </mxCell>
        <mxCell id="R7QKlzEL6FiSknRqJ6hg-37" value="+int role" style="text;strokeColor=none;fillColor=none;align=left;verticalAlign=top;spacingLeft=4;spacingRight=4;overflow=hidden;rotatable=0;points=[[0,0.5],[1,0.5]];portConstraint=eastwest;fontSize=20;" vertex="1" parent="R7QKlzEL6FiSknRqJ6hg-33">
          <mxGeometry y="153.45454545454544" width="200" height="40" as="geometry" />
        </mxCell>
        <mxCell id="R7QKlzEL6FiSknRqJ6hg-38" style="line;strokeWidth=1;fillColor=none;align=left;verticalAlign=middle;spacingTop=-1;spacingLeft=3;spacingRight=3;rotatable=0;labelPosition=right;points=[];portConstraint=eastwest;strokeColor=inherit;fontSize=20;" vertex="1" parent="R7QKlzEL6FiSknRqJ6hg-33">
          <mxGeometry y="193.45454545454544" width="200" height="40" as="geometry" />
        </mxCell>
        <mxCell id="R7QKlzEL6FiSknRqJ6hg-39" value="has" style="startArrow=none;endArrow=open;endSize=12;exitX=0.5;exitY=1;entryX=0.19;entryY=0;rounded=0;fontSize=20;" edge="1" parent="1" source="R7QKlzEL6FiSknRqJ6hg-14" target="R7QKlzEL6FiSknRqJ6hg-1">
          <mxGeometry relative="1" as="geometry" />
        </mxCell>
        <mxCell id="R7QKlzEL6FiSknRqJ6hg-40" value="1" style="edgeLabel;resizable=0;labelBackgroundColor=none;fontSize=20;align=right;verticalAlign=top;" vertex="1" parent="R7QKlzEL6FiSknRqJ6hg-39">
          <mxGeometry x="-1" width="30" height="40" relative="1" as="geometry" />
        </mxCell>
        <mxCell id="R7QKlzEL6FiSknRqJ6hg-41" value="many" style="edgeLabel;resizable=0;labelBackgroundColor=none;fontSize=20;align=left;verticalAlign=bottom;" vertex="1" parent="R7QKlzEL6FiSknRqJ6hg-39">
          <mxGeometry x="1" width="70" height="40" relative="1" as="geometry">
            <mxPoint x="-29" y="-53" as="offset" />
          </mxGeometry>
        </mxCell>
        <mxCell id="R7QKlzEL6FiSknRqJ6hg-42" value="is" style="startArrow=none;endArrow=open;endSize=12;exitX=0.12;exitY=1;entryX=0.5;entryY=0;rounded=0;fontSize=20;" edge="1" parent="1" source="R7QKlzEL6FiSknRqJ6hg-33" target="R7QKlzEL6FiSknRqJ6hg-14">
          <mxGeometry relative="1" as="geometry" />
        </mxCell>
        <mxCell id="R7QKlzEL6FiSknRqJ6hg-43" value="1" style="edgeLabel;resizable=0;labelBackgroundColor=none;fontSize=20;align=right;verticalAlign=top;" vertex="1" parent="R7QKlzEL6FiSknRqJ6hg-42">
          <mxGeometry x="-1" width="30" height="40" relative="1" as="geometry" />
        </mxCell>
        <mxCell id="R7QKlzEL6FiSknRqJ6hg-44" value="many" style="edgeLabel;resizable=0;labelBackgroundColor=none;fontSize=20;align=left;verticalAlign=bottom;" vertex="1" parent="R7QKlzEL6FiSknRqJ6hg-42">
          <mxGeometry x="1" width="70" height="40" relative="1" as="geometry">
            <mxPoint x="134" y="-50" as="offset" />
          </mxGeometry>
        </mxCell>
        <mxCell id="R7QKlzEL6FiSknRqJ6hg-45" value="contains" style="startArrow=none;endArrow=open;endSize=12;exitX=0.5;exitY=1;entryX=0.02;entryY=0;rounded=0;fontSize=20;" edge="1" parent="1" source="R7QKlzEL6FiSknRqJ6hg-1" target="R7QKlzEL6FiSknRqJ6hg-8">
          <mxGeometry relative="1" as="geometry" />
        </mxCell>
        <mxCell id="R7QKlzEL6FiSknRqJ6hg-46" value="1" style="edgeLabel;resizable=0;labelBackgroundColor=none;fontSize=20;align=right;verticalAlign=top;" vertex="1" parent="R7QKlzEL6FiSknRqJ6hg-45">
          <mxGeometry x="-1" width="30" height="40" relative="1" as="geometry" />
        </mxCell>
        <mxCell id="R7QKlzEL6FiSknRqJ6hg-47" value="many" style="edgeLabel;resizable=0;labelBackgroundColor=none;fontSize=20;align=left;verticalAlign=bottom;" vertex="1" parent="R7QKlzEL6FiSknRqJ6hg-45">
          <mxGeometry x="1" width="70" height="40" relative="1" as="geometry">
            <mxPoint x="-34" y="-60" as="offset" />
          </mxGeometry>
        </mxCell>
        <mxCell id="R7QKlzEL6FiSknRqJ6hg-48" value="is_in" style="startArrow=none;endArrow=open;endSize=12;exitX=0.5;exitY=1;entryX=0.98;entryY=0;rounded=0;fontSize=20;" edge="1" parent="1" source="R7QKlzEL6FiSknRqJ6hg-28" target="R7QKlzEL6FiSknRqJ6hg-8">
          <mxGeometry relative="1" as="geometry" />
        </mxCell>
        <mxCell id="R7QKlzEL6FiSknRqJ6hg-49" value="1" style="edgeLabel;resizable=0;labelBackgroundColor=none;fontSize=20;align=right;verticalAlign=top;" vertex="1" parent="R7QKlzEL6FiSknRqJ6hg-48">
          <mxGeometry x="-1" width="30" height="40" relative="1" as="geometry" />
        </mxCell>
        <mxCell id="R7QKlzEL6FiSknRqJ6hg-50" value="many" style="edgeLabel;resizable=0;labelBackgroundColor=none;fontSize=20;align=left;verticalAlign=bottom;" vertex="1" parent="R7QKlzEL6FiSknRqJ6hg-48">
          <mxGeometry x="1" width="70" height="40" relative="1" as="geometry">
            <mxPoint x="-46" y="-69" as="offset" />
          </mxGeometry>
        </mxCell>
        <mxCell id="R7QKlzEL6FiSknRqJ6hg-51" value="calculated" style="startArrow=none;endArrow=open;endSize=12;exitX=0.88;exitY=1;entryX=0.8;entryY=0;rounded=0;fontSize=20;" edge="1" parent="1" source="R7QKlzEL6FiSknRqJ6hg-33" target="R7QKlzEL6FiSknRqJ6hg-1">
          <mxGeometry relative="1" as="geometry" />
        </mxCell>
        <mxCell id="R7QKlzEL6FiSknRqJ6hg-52" value="1" style="edgeLabel;resizable=0;labelBackgroundColor=none;fontSize=20;align=right;verticalAlign=top;" vertex="1" parent="R7QKlzEL6FiSknRqJ6hg-51">
          <mxGeometry x="-1" width="30" height="40" relative="1" as="geometry" />
        </mxCell>
        <mxCell id="R7QKlzEL6FiSknRqJ6hg-53" value="many" style="edgeLabel;resizable=0;labelBackgroundColor=none;fontSize=20;align=left;verticalAlign=bottom;" vertex="1" parent="R7QKlzEL6FiSknRqJ6hg-51">
          <mxGeometry x="1" width="70" height="40" relative="1" as="geometry">
            <mxPoint x="22" y="-61" as="offset" />
          </mxGeometry>
        </mxCell>
      </root>
    </mxGraphModel>
  </diagram>
  <diagram id="U16RY5AvFXsnXBJt1OwH" name="usecase">
    <mxGraphModel dx="2450" dy="1387" grid="1" gridSize="10" guides="1" tooltips="1" connect="1" arrows="1" fold="1" page="1" pageScale="1" pageWidth="2336" pageHeight="1654" math="0" shadow="0">
      <root>
        <mxCell id="0" />
        <mxCell id="1" parent="0" />
        <mxCell id="gefBic58C_TmHshvTR1T-1" value="Pahana Education Billing System" style="whiteSpace=wrap;strokeWidth=2;" vertex="1" parent="1">
          <mxGeometry x="632.5" y="10" width="237" height="1600" as="geometry" />
        </mxCell>
        <mxCell id="gefBic58C_TmHshvTR1T-2" value="" style="ellipse;aspect=fixed;strokeWidth=2;whiteSpace=wrap;fillColor=none;strokeColor=none;" vertex="1" parent="1">
          <mxGeometry x="360" y="280" width="80" height="80" as="geometry" />
        </mxCell>
        <mxCell id="gefBic58C_TmHshvTR1T-3" value="" style="ellipse;aspect=fixed;strokeWidth=2;whiteSpace=wrap;fillColor=none;strokeColor=none;" vertex="1" parent="1">
          <mxGeometry x="380" y="1047" width="90" height="90" as="geometry" />
        </mxCell>
        <mxCell id="gefBic58C_TmHshvTR1T-4" value="Register Account" style="ellipse;aspect=fixed;strokeWidth=2;whiteSpace=wrap;" vertex="1" parent="1">
          <mxGeometry x="707" y="40" width="70" height="70" as="geometry" />
        </mxCell>
        <mxCell id="gefBic58C_TmHshvTR1T-5" value="Login" style="ellipse;aspect=fixed;strokeWidth=2;whiteSpace=wrap;" vertex="1" parent="1">
          <mxGeometry x="716" y="150" width="50" height="50" as="geometry" />
        </mxCell>
        <mxCell id="gefBic58C_TmHshvTR1T-6" value="Search Items" style="ellipse;aspect=fixed;strokeWidth=2;whiteSpace=wrap;" vertex="1" parent="1">
          <mxGeometry x="696" y="230" width="90" height="90" as="geometry" />
        </mxCell>
        <mxCell id="gefBic58C_TmHshvTR1T-7" value="Add Items to Cart" style="ellipse;aspect=fixed;strokeWidth=2;whiteSpace=wrap;" vertex="1" parent="1">
          <mxGeometry x="711" y="360" width="80" height="80" as="geometry" />
        </mxCell>
        <mxCell id="gefBic58C_TmHshvTR1T-8" value="Generate Bill" style="ellipse;aspect=fixed;strokeWidth=2;whiteSpace=wrap;" vertex="1" parent="1">
          <mxGeometry x="697" y="521" width="90" height="90" as="geometry" />
        </mxCell>
        <mxCell id="gefBic58C_TmHshvTR1T-9" value="View/Print Bill" style="ellipse;aspect=fixed;strokeWidth=2;whiteSpace=wrap;" vertex="1" parent="1">
          <mxGeometry x="692" y="680" width="100" height="100" as="geometry" />
        </mxCell>
        <mxCell id="gefBic58C_TmHshvTR1T-10" value="View Reports" style="ellipse;aspect=fixed;strokeWidth=2;whiteSpace=wrap;" vertex="1" parent="1">
          <mxGeometry x="696" y="849" width="90" height="90" as="geometry" />
        </mxCell>
        <mxCell id="gefBic58C_TmHshvTR1T-11" value="Export Reports CSV/PDF" style="ellipse;aspect=fixed;strokeWidth=2;whiteSpace=wrap;" vertex="1" parent="1">
          <mxGeometry x="688" y="1060" width="106" height="106" as="geometry" />
        </mxCell>
        <mxCell id="gefBic58C_TmHshvTR1T-12" value="Manage Users" style="ellipse;aspect=fixed;strokeWidth=2;whiteSpace=wrap;" vertex="1" parent="1">
          <mxGeometry x="692" y="1210" width="100" height="100" as="geometry" />
        </mxCell>
        <mxCell id="gefBic58C_TmHshvTR1T-13" value="Manage Items" style="ellipse;aspect=fixed;strokeWidth=2;whiteSpace=wrap;" vertex="1" parent="1">
          <mxGeometry x="701" y="1340" width="100" height="100" as="geometry" />
        </mxCell>
        <mxCell id="gefBic58C_TmHshvTR1T-14" value="Manage Help Content" style="ellipse;aspect=fixed;strokeWidth=2;whiteSpace=wrap;" vertex="1" parent="1">
          <mxGeometry x="706" y="1490" width="90" height="90" as="geometry" />
        </mxCell>
        <mxCell id="gefBic58C_TmHshvTR1T-15" value="" style="startArrow=none;endArrow=block;exitX=0.6;exitY=0.01;entryX=0;entryY=0.5;rounded=0;" edge="1" parent="1" source="gefBic58C_TmHshvTR1T-2" target="gefBic58C_TmHshvTR1T-4">
          <mxGeometry relative="1" as="geometry" />
        </mxCell>
        <mxCell id="gefBic58C_TmHshvTR1T-16" value="" style="startArrow=none;endArrow=block;exitX=0.63;exitY=0.01;entryX=0;entryY=0.25;rounded=0;" edge="1" parent="1" source="gefBic58C_TmHshvTR1T-2" target="gefBic58C_TmHshvTR1T-5">
          <mxGeometry relative="1" as="geometry" />
        </mxCell>
        <mxCell id="gefBic58C_TmHshvTR1T-17" value="" style="startArrow=none;endArrow=block;exitX=0.94;exitY=0.01;entryX=0;entryY=0.5;rounded=0;" edge="1" parent="1" source="gefBic58C_TmHshvTR1T-2" target="gefBic58C_TmHshvTR1T-6">
          <mxGeometry relative="1" as="geometry" />
        </mxCell>
        <mxCell id="gefBic58C_TmHshvTR1T-18" value="" style="startArrow=none;endArrow=block;exitX=0.94;exitY=1;entryX=0;entryY=0.5;rounded=0;" edge="1" parent="1" source="gefBic58C_TmHshvTR1T-2" target="gefBic58C_TmHshvTR1T-7">
          <mxGeometry relative="1" as="geometry" />
        </mxCell>
        <mxCell id="gefBic58C_TmHshvTR1T-19" value="" style="startArrow=none;endArrow=block;exitX=0.7;exitY=1;entryX=0;entryY=0.17;rounded=0;" edge="1" parent="1" source="gefBic58C_TmHshvTR1T-2" target="gefBic58C_TmHshvTR1T-8">
          <mxGeometry relative="1" as="geometry" />
        </mxCell>
        <mxCell id="gefBic58C_TmHshvTR1T-20" value="" style="startArrow=none;endArrow=block;exitX=0.59;exitY=1;entryX=0;entryY=0.5;rounded=0;" edge="1" parent="1" source="gefBic58C_TmHshvTR1T-2" target="gefBic58C_TmHshvTR1T-9">
          <mxGeometry relative="1" as="geometry" />
        </mxCell>
        <mxCell id="gefBic58C_TmHshvTR1T-21" value="" style="startArrow=none;endArrow=block;exitX=0.54;exitY=0;entryX=0;entryY=0.74;rounded=0;" edge="1" parent="1" source="gefBic58C_TmHshvTR1T-3" target="gefBic58C_TmHshvTR1T-5">
          <mxGeometry relative="1" as="geometry" />
        </mxCell>
        <mxCell id="gefBic58C_TmHshvTR1T-22" value="" style="startArrow=none;endArrow=block;exitX=0.58;exitY=0;entryX=0;entryY=0.8;rounded=0;" edge="1" parent="1" source="gefBic58C_TmHshvTR1T-3" target="gefBic58C_TmHshvTR1T-8">
          <mxGeometry relative="1" as="geometry" />
        </mxCell>
        <mxCell id="gefBic58C_TmHshvTR1T-23" value="" style="startArrow=none;endArrow=block;exitX=0.69;exitY=0;entryX=0;entryY=0.5;rounded=0;" edge="1" parent="1" source="gefBic58C_TmHshvTR1T-3" target="gefBic58C_TmHshvTR1T-10">
          <mxGeometry relative="1" as="geometry" />
        </mxCell>
        <mxCell id="gefBic58C_TmHshvTR1T-24" value="" style="startArrow=none;endArrow=block;exitX=1;exitY=0.5;entryX=0;entryY=0.5;rounded=0;" edge="1" parent="1" source="gefBic58C_TmHshvTR1T-3" target="gefBic58C_TmHshvTR1T-11">
          <mxGeometry relative="1" as="geometry" />
        </mxCell>
        <mxCell id="gefBic58C_TmHshvTR1T-25" value="" style="startArrow=none;endArrow=block;exitX=0.69;exitY=1;entryX=0;entryY=0.5;rounded=0;" edge="1" parent="1" source="gefBic58C_TmHshvTR1T-3" target="gefBic58C_TmHshvTR1T-12">
          <mxGeometry relative="1" as="geometry" />
        </mxCell>
        <mxCell id="gefBic58C_TmHshvTR1T-26" value="" style="startArrow=none;endArrow=block;exitX=0.6;exitY=1;entryX=0;entryY=0.5;rounded=0;" edge="1" parent="1" source="gefBic58C_TmHshvTR1T-3" target="gefBic58C_TmHshvTR1T-13">
          <mxGeometry relative="1" as="geometry" />
        </mxCell>
        <mxCell id="gefBic58C_TmHshvTR1T-27" value="" style="startArrow=none;endArrow=block;exitX=0.57;exitY=1;entryX=0;entryY=0.5;rounded=0;" edge="1" parent="1" source="gefBic58C_TmHshvTR1T-3" target="gefBic58C_TmHshvTR1T-14">
          <mxGeometry relative="1" as="geometry" />
        </mxCell>
        <mxCell id="gefBic58C_TmHshvTR1T-28" value="&#xa;&lt;span style=&quot;color: rgb(0, 0, 0); font-family: Helvetica; font-size: 12px; font-style: normal; font-variant-ligatures: normal; font-variant-caps: normal; font-weight: 400; letter-spacing: normal; orphans: 2; text-align: center; text-indent: 0px; text-transform: none; widows: 2; word-spacing: 0px; -webkit-text-stroke-width: 0px; white-space: normal; background-color: rgb(236, 236, 236); text-decoration-thickness: initial; text-decoration-style: initial; text-decoration-color: initial; display: inline !important; float: none;&quot;&gt;Customer&lt;/span&gt;&#xa;&#xa;" style="shape=umlActor;verticalLabelPosition=bottom;verticalAlign=top;html=1;outlineConnect=0;fontFamily=Helvetica;fontSize=11;fontColor=default;labelBackgroundColor=default;" vertex="1" parent="1">
          <mxGeometry x="342.5" y="205" width="115" height="230" as="geometry" />
        </mxCell>
        <mxCell id="gefBic58C_TmHshvTR1T-29" value="&#xa;&lt;span style=&quot;color: rgb(0, 0, 0); font-family: Helvetica; font-size: 12px; font-style: normal; font-variant-ligatures: normal; font-variant-caps: normal; font-weight: 400; letter-spacing: normal; orphans: 2; text-align: center; text-indent: 0px; text-transform: none; widows: 2; word-spacing: 0px; -webkit-text-stroke-width: 0px; white-space: normal; background-color: rgb(236, 236, 236); text-decoration-thickness: initial; text-decoration-style: initial; text-decoration-color: initial; display: inline !important; float: none;&quot;&gt;Staff/Admin&lt;/span&gt;&#xa;&#xa;" style="shape=umlActor;verticalLabelPosition=bottom;verticalAlign=top;html=1;outlineConnect=0;fontFamily=Helvetica;fontSize=11;fontColor=default;labelBackgroundColor=default;" vertex="1" parent="1">
          <mxGeometry x="330" y="960" width="115" height="230" as="geometry" />
        </mxCell>
      </root>
    </mxGraphModel>
  </diagram>
  <diagram id="Yreohl17WPQIStLnEoPb" name="sequance">
    <mxGraphModel dx="2450" dy="1387" grid="1" gridSize="10" guides="1" tooltips="1" connect="1" arrows="1" fold="1" page="1" pageScale="1" pageWidth="2336" pageHeight="1654" math="0" shadow="0">
      <root>
        <mxCell id="0" />
        <mxCell id="1" parent="0" />
        <mxCell id="8x86-gYPFJxtSZaC03kZ-43" value="Admin" style="shape=umlLifeline;perimeter=lifelinePerimeter;whiteSpace=wrap;container=1;dropTarget=0;collapsible=0;recursiveResize=0;outlineConnect=0;portConstraint=eastwest;newEdgeStyle={&quot;edgeStyle&quot;:&quot;elbowEdgeStyle&quot;,&quot;elbow&quot;:&quot;vertical&quot;,&quot;curved&quot;:0,&quot;rounded&quot;:0};participant=umlActor;verticalAlign=bottom;labelPosition=center;verticalLabelPosition=top;align=center;size=65;" vertex="1" parent="1">
          <mxGeometry x="20" y="20" width="35" height="2656" as="geometry" />
        </mxCell>
        <mxCell id="8x86-gYPFJxtSZaC03kZ-44" value="Customer" style="shape=umlLifeline;perimeter=lifelinePerimeter;whiteSpace=wrap;container=1;dropTarget=0;collapsible=0;recursiveResize=0;outlineConnect=0;portConstraint=eastwest;newEdgeStyle={&quot;edgeStyle&quot;:&quot;elbowEdgeStyle&quot;,&quot;elbow&quot;:&quot;vertical&quot;,&quot;curved&quot;:0,&quot;rounded&quot;:0};participant=umlActor;verticalAlign=bottom;labelPosition=center;verticalLabelPosition=top;align=center;size=65;" vertex="1" parent="1">
          <mxGeometry x="220" y="20" width="35" height="2656" as="geometry" />
        </mxCell>
        <mxCell id="8x86-gYPFJxtSZaC03kZ-45" value="System" style="shape=umlLifeline;perimeter=lifelinePerimeter;whiteSpace=wrap;container=1;dropTarget=0;collapsible=0;recursiveResize=0;outlineConnect=0;portConstraint=eastwest;newEdgeStyle={&quot;edgeStyle&quot;:&quot;elbowEdgeStyle&quot;,&quot;elbow&quot;:&quot;vertical&quot;,&quot;curved&quot;:0,&quot;rounded&quot;:0};size=65;" vertex="1" parent="1">
          <mxGeometry x="481" y="20" width="150" height="2656" as="geometry" />
        </mxCell>
        <mxCell id="8x86-gYPFJxtSZaC03kZ-46" value="Database" style="shape=umlLifeline;perimeter=lifelinePerimeter;whiteSpace=wrap;container=1;dropTarget=0;collapsible=0;recursiveResize=0;outlineConnect=0;portConstraint=eastwest;newEdgeStyle={&quot;edgeStyle&quot;:&quot;elbowEdgeStyle&quot;,&quot;elbow&quot;:&quot;vertical&quot;,&quot;curved&quot;:0,&quot;rounded&quot;:0};size=65;" vertex="1" parent="1">
          <mxGeometry x="742" y="20" width="150" height="2656" as="geometry" />
        </mxCell>
        <mxCell id="8x86-gYPFJxtSZaC03kZ-47" value="EmailService" style="shape=umlLifeline;perimeter=lifelinePerimeter;whiteSpace=wrap;container=1;dropTarget=0;collapsible=0;recursiveResize=0;outlineConnect=0;portConstraint=eastwest;newEdgeStyle={&quot;edgeStyle&quot;:&quot;elbowEdgeStyle&quot;,&quot;elbow&quot;:&quot;vertical&quot;,&quot;curved&quot;:0,&quot;rounded&quot;:0};size=65;" vertex="1" parent="1">
          <mxGeometry x="942" y="20" width="150" height="2656" as="geometry" />
        </mxCell>
        <mxCell id="8x86-gYPFJxtSZaC03kZ-48" value="Login(credentials)" style="verticalAlign=bottom;edgeStyle=elbowEdgeStyle;elbow=vertical;curved=0;rounded=0;endArrow=block;" edge="1" parent="1" source="8x86-gYPFJxtSZaC03kZ-43" target="8x86-gYPFJxtSZaC03kZ-45">
          <mxGeometry relative="1" as="geometry">
            <Array as="points">
              <mxPoint x="334" y="127" />
            </Array>
          </mxGeometry>
        </mxCell>
        <mxCell id="8x86-gYPFJxtSZaC03kZ-49" value="Verify admin credentials" style="verticalAlign=bottom;edgeStyle=elbowEdgeStyle;elbow=vertical;curved=0;rounded=0;endArrow=block;" edge="1" parent="1" source="8x86-gYPFJxtSZaC03kZ-45" target="8x86-gYPFJxtSZaC03kZ-46">
          <mxGeometry relative="1" as="geometry">
            <Array as="points">
              <mxPoint x="695" y="179" />
            </Array>
          </mxGeometry>
        </mxCell>
        <mxCell id="8x86-gYPFJxtSZaC03kZ-50" value="Credentials valid" style="verticalAlign=bottom;edgeStyle=elbowEdgeStyle;elbow=vertical;curved=0;rounded=0;dashed=1;dashPattern=2 3;endArrow=block;" edge="1" parent="1" source="8x86-gYPFJxtSZaC03kZ-46" target="8x86-gYPFJxtSZaC03kZ-45">
          <mxGeometry relative="1" as="geometry">
            <Array as="points">
              <mxPoint x="698" y="231" />
            </Array>
          </mxGeometry>
        </mxCell>
        <mxCell id="8x86-gYPFJxtSZaC03kZ-51" value="Login successful" style="verticalAlign=bottom;edgeStyle=elbowEdgeStyle;elbow=vertical;curved=0;rounded=0;dashed=1;dashPattern=2 3;endArrow=block;" edge="1" parent="1" source="8x86-gYPFJxtSZaC03kZ-45" target="8x86-gYPFJxtSZaC03kZ-43">
          <mxGeometry relative="1" as="geometry">
            <Array as="points">
              <mxPoint x="337" y="283" />
            </Array>
          </mxGeometry>
        </mxCell>
        <mxCell id="8x86-gYPFJxtSZaC03kZ-52" value="Create customer (details)" style="verticalAlign=bottom;edgeStyle=elbowEdgeStyle;elbow=vertical;curved=0;rounded=0;endArrow=block;" edge="1" parent="1" source="8x86-gYPFJxtSZaC03kZ-43" target="8x86-gYPFJxtSZaC03kZ-45">
          <mxGeometry relative="1" as="geometry">
            <Array as="points">
              <mxPoint x="334" y="335" />
            </Array>
          </mxGeometry>
        </mxCell>
        <mxCell id="8x86-gYPFJxtSZaC03kZ-53" value="Insert new customer" style="verticalAlign=bottom;edgeStyle=elbowEdgeStyle;elbow=vertical;curved=0;rounded=0;endArrow=block;" edge="1" parent="1" source="8x86-gYPFJxtSZaC03kZ-45" target="8x86-gYPFJxtSZaC03kZ-46">
          <mxGeometry relative="1" as="geometry">
            <Array as="points">
              <mxPoint x="695" y="387" />
            </Array>
          </mxGeometry>
        </mxCell>
        <mxCell id="8x86-gYPFJxtSZaC03kZ-54" value="Customer created" style="verticalAlign=bottom;edgeStyle=elbowEdgeStyle;elbow=vertical;curved=0;rounded=0;dashed=1;dashPattern=2 3;endArrow=block;" edge="1" parent="1" source="8x86-gYPFJxtSZaC03kZ-46" target="8x86-gYPFJxtSZaC03kZ-45">
          <mxGeometry relative="1" as="geometry">
            <Array as="points">
              <mxPoint x="698" y="439" />
            </Array>
          </mxGeometry>
        </mxCell>
        <mxCell id="8x86-gYPFJxtSZaC03kZ-55" value="Confirmation" style="verticalAlign=bottom;edgeStyle=elbowEdgeStyle;elbow=vertical;curved=0;rounded=0;dashed=1;dashPattern=2 3;endArrow=block;" edge="1" parent="1" source="8x86-gYPFJxtSZaC03kZ-45" target="8x86-gYPFJxtSZaC03kZ-43">
          <mxGeometry relative="1" as="geometry">
            <Array as="points">
              <mxPoint x="337" y="491" />
            </Array>
          </mxGeometry>
        </mxCell>
        <mxCell id="8x86-gYPFJxtSZaC03kZ-56" value="Add new product (details)" style="verticalAlign=bottom;edgeStyle=elbowEdgeStyle;elbow=vertical;curved=0;rounded=0;endArrow=block;" edge="1" parent="1" source="8x86-gYPFJxtSZaC03kZ-43" target="8x86-gYPFJxtSZaC03kZ-45">
          <mxGeometry relative="1" as="geometry">
            <Array as="points">
              <mxPoint x="334" y="543" />
            </Array>
          </mxGeometry>
        </mxCell>
        <mxCell id="8x86-gYPFJxtSZaC03kZ-57" value="Insert product record" style="verticalAlign=bottom;edgeStyle=elbowEdgeStyle;elbow=vertical;curved=0;rounded=0;endArrow=block;" edge="1" parent="1" source="8x86-gYPFJxtSZaC03kZ-45" target="8x86-gYPFJxtSZaC03kZ-46">
          <mxGeometry relative="1" as="geometry">
            <Array as="points">
              <mxPoint x="695" y="595" />
            </Array>
          </mxGeometry>
        </mxCell>
        <mxCell id="8x86-gYPFJxtSZaC03kZ-58" value="Product added" style="verticalAlign=bottom;edgeStyle=elbowEdgeStyle;elbow=vertical;curved=0;rounded=0;dashed=1;dashPattern=2 3;endArrow=block;" edge="1" parent="1" source="8x86-gYPFJxtSZaC03kZ-46" target="8x86-gYPFJxtSZaC03kZ-45">
          <mxGeometry relative="1" as="geometry">
            <Array as="points">
              <mxPoint x="698" y="647" />
            </Array>
          </mxGeometry>
        </mxCell>
        <mxCell id="8x86-gYPFJxtSZaC03kZ-59" value="Add quantity" style="verticalAlign=bottom;edgeStyle=elbowEdgeStyle;elbow=vertical;curved=0;rounded=0;endArrow=block;" edge="1" parent="1" source="8x86-gYPFJxtSZaC03kZ-43" target="8x86-gYPFJxtSZaC03kZ-45">
          <mxGeometry relative="1" as="geometry">
            <Array as="points">
              <mxPoint x="334" y="699" />
            </Array>
          </mxGeometry>
        </mxCell>
        <mxCell id="8x86-gYPFJxtSZaC03kZ-60" value="Update product stock" style="verticalAlign=bottom;edgeStyle=elbowEdgeStyle;elbow=vertical;curved=0;rounded=0;endArrow=block;" edge="1" parent="1" source="8x86-gYPFJxtSZaC03kZ-45" target="8x86-gYPFJxtSZaC03kZ-46">
          <mxGeometry relative="1" as="geometry">
            <Array as="points">
              <mxPoint x="695" y="751" />
            </Array>
          </mxGeometry>
        </mxCell>
        <mxCell id="8x86-gYPFJxtSZaC03kZ-61" value="Stock updated" style="verticalAlign=bottom;edgeStyle=elbowEdgeStyle;elbow=vertical;curved=0;rounded=0;dashed=1;dashPattern=2 3;endArrow=block;" edge="1" parent="1" source="8x86-gYPFJxtSZaC03kZ-46" target="8x86-gYPFJxtSZaC03kZ-45">
          <mxGeometry relative="1" as="geometry">
            <Array as="points">
              <mxPoint x="698" y="803" />
            </Array>
          </mxGeometry>
        </mxCell>
        <mxCell id="8x86-gYPFJxtSZaC03kZ-62" value="Login(credentials)" style="verticalAlign=bottom;edgeStyle=elbowEdgeStyle;elbow=vertical;curved=0;rounded=0;endArrow=block;" edge="1" parent="1" source="8x86-gYPFJxtSZaC03kZ-44" target="8x86-gYPFJxtSZaC03kZ-45">
          <mxGeometry relative="1" as="geometry">
            <Array as="points">
              <mxPoint x="434" y="855" />
            </Array>
          </mxGeometry>
        </mxCell>
        <mxCell id="8x86-gYPFJxtSZaC03kZ-63" value="Verify customer credentials" style="verticalAlign=bottom;edgeStyle=elbowEdgeStyle;elbow=vertical;curved=0;rounded=0;endArrow=block;" edge="1" parent="1" source="8x86-gYPFJxtSZaC03kZ-45" target="8x86-gYPFJxtSZaC03kZ-46">
          <mxGeometry relative="1" as="geometry">
            <Array as="points">
              <mxPoint x="695" y="907" />
            </Array>
          </mxGeometry>
        </mxCell>
        <mxCell id="8x86-gYPFJxtSZaC03kZ-64" value="Credentials valid" style="verticalAlign=bottom;edgeStyle=elbowEdgeStyle;elbow=vertical;curved=0;rounded=0;dashed=1;dashPattern=2 3;endArrow=block;" edge="1" parent="1" source="8x86-gYPFJxtSZaC03kZ-46" target="8x86-gYPFJxtSZaC03kZ-45">
          <mxGeometry relative="1" as="geometry">
            <Array as="points">
              <mxPoint x="698" y="959" />
            </Array>
          </mxGeometry>
        </mxCell>
        <mxCell id="8x86-gYPFJxtSZaC03kZ-65" value="Login successful" style="verticalAlign=bottom;edgeStyle=elbowEdgeStyle;elbow=vertical;curved=0;rounded=0;dashed=1;dashPattern=2 3;endArrow=block;" edge="1" parent="1" source="8x86-gYPFJxtSZaC03kZ-45" target="8x86-gYPFJxtSZaC03kZ-44">
          <mxGeometry relative="1" as="geometry">
            <Array as="points">
              <mxPoint x="437" y="1011" />
            </Array>
          </mxGeometry>
        </mxCell>
        <mxCell id="8x86-gYPFJxtSZaC03kZ-66" value="Browse products" style="verticalAlign=bottom;edgeStyle=elbowEdgeStyle;elbow=vertical;curved=0;rounded=0;endArrow=block;" edge="1" parent="1" source="8x86-gYPFJxtSZaC03kZ-44" target="8x86-gYPFJxtSZaC03kZ-45">
          <mxGeometry relative="1" as="geometry">
            <Array as="points">
              <mxPoint x="434" y="1063" />
            </Array>
          </mxGeometry>
        </mxCell>
        <mxCell id="8x86-gYPFJxtSZaC03kZ-67" value="Fetch product list" style="verticalAlign=bottom;edgeStyle=elbowEdgeStyle;elbow=vertical;curved=0;rounded=0;endArrow=block;" edge="1" parent="1" source="8x86-gYPFJxtSZaC03kZ-45" target="8x86-gYPFJxtSZaC03kZ-46">
          <mxGeometry relative="1" as="geometry">
            <Array as="points">
              <mxPoint x="695" y="1115" />
            </Array>
          </mxGeometry>
        </mxCell>
        <mxCell id="8x86-gYPFJxtSZaC03kZ-68" value="Product list" style="verticalAlign=bottom;edgeStyle=elbowEdgeStyle;elbow=vertical;curved=0;rounded=0;dashed=1;dashPattern=2 3;endArrow=block;" edge="1" parent="1" source="8x86-gYPFJxtSZaC03kZ-46" target="8x86-gYPFJxtSZaC03kZ-45">
          <mxGeometry relative="1" as="geometry">
            <Array as="points">
              <mxPoint x="698" y="1167" />
            </Array>
          </mxGeometry>
        </mxCell>
        <mxCell id="8x86-gYPFJxtSZaC03kZ-69" value="Show products" style="verticalAlign=bottom;edgeStyle=elbowEdgeStyle;elbow=vertical;curved=0;rounded=0;dashed=1;dashPattern=2 3;endArrow=block;" edge="1" parent="1" source="8x86-gYPFJxtSZaC03kZ-45" target="8x86-gYPFJxtSZaC03kZ-44">
          <mxGeometry relative="1" as="geometry">
            <Array as="points">
              <mxPoint x="437" y="1219" />
            </Array>
          </mxGeometry>
        </mxCell>
        <mxCell id="8x86-gYPFJxtSZaC03kZ-70" value="Select item and add to cart" style="verticalAlign=bottom;edgeStyle=elbowEdgeStyle;elbow=vertical;curved=0;rounded=0;endArrow=block;" edge="1" parent="1" source="8x86-gYPFJxtSZaC03kZ-44" target="8x86-gYPFJxtSZaC03kZ-45">
          <mxGeometry relative="1" as="geometry">
            <Array as="points">
              <mxPoint x="434" y="1271" />
            </Array>
          </mxGeometry>
        </mxCell>
        <mxCell id="8x86-gYPFJxtSZaC03kZ-71" value="Update cart" style="verticalAlign=bottom;edgeStyle=elbowEdgeStyle;elbow=vertical;curved=0;rounded=0;endArrow=block;" edge="1" parent="1" source="8x86-gYPFJxtSZaC03kZ-45" target="8x86-gYPFJxtSZaC03kZ-46">
          <mxGeometry relative="1" as="geometry">
            <Array as="points">
              <mxPoint x="695" y="1323" />
            </Array>
          </mxGeometry>
        </mxCell>
        <mxCell id="8x86-gYPFJxtSZaC03kZ-72" value="Cart updated" style="verticalAlign=bottom;edgeStyle=elbowEdgeStyle;elbow=vertical;curved=0;rounded=0;dashed=1;dashPattern=2 3;endArrow=block;" edge="1" parent="1" source="8x86-gYPFJxtSZaC03kZ-46" target="8x86-gYPFJxtSZaC03kZ-45">
          <mxGeometry relative="1" as="geometry">
            <Array as="points">
              <mxPoint x="698" y="1375" />
            </Array>
          </mxGeometry>
        </mxCell>
        <mxCell id="8x86-gYPFJxtSZaC03kZ-73" value="Generate bill" style="verticalAlign=bottom;edgeStyle=elbowEdgeStyle;elbow=vertical;curved=0;rounded=0;endArrow=block;" edge="1" parent="1" source="8x86-gYPFJxtSZaC03kZ-44" target="8x86-gYPFJxtSZaC03kZ-45">
          <mxGeometry relative="1" as="geometry">
            <Array as="points">
              <mxPoint x="434" y="1427" />
            </Array>
          </mxGeometry>
        </mxCell>
        <mxCell id="8x86-gYPFJxtSZaC03kZ-74" value="Save bill &amp; bill items" style="verticalAlign=bottom;edgeStyle=elbowEdgeStyle;elbow=vertical;curved=0;rounded=0;endArrow=block;" edge="1" parent="1" source="8x86-gYPFJxtSZaC03kZ-45" target="8x86-gYPFJxtSZaC03kZ-46">
          <mxGeometry relative="1" as="geometry">
            <Array as="points">
              <mxPoint x="695" y="1479" />
            </Array>
          </mxGeometry>
        </mxCell>
        <mxCell id="8x86-gYPFJxtSZaC03kZ-75" value="Bill saved" style="verticalAlign=bottom;edgeStyle=elbowEdgeStyle;elbow=vertical;curved=0;rounded=0;dashed=1;dashPattern=2 3;endArrow=block;" edge="1" parent="1" source="8x86-gYPFJxtSZaC03kZ-46" target="8x86-gYPFJxtSZaC03kZ-45">
          <mxGeometry relative="1" as="geometry">
            <Array as="points">
              <mxPoint x="698" y="1531" />
            </Array>
          </mxGeometry>
        </mxCell>
        <mxCell id="8x86-gYPFJxtSZaC03kZ-76" value="Send bill email" style="verticalAlign=bottom;edgeStyle=elbowEdgeStyle;elbow=vertical;curved=0;rounded=0;endArrow=block;" edge="1" parent="1" source="8x86-gYPFJxtSZaC03kZ-45" target="8x86-gYPFJxtSZaC03kZ-47">
          <mxGeometry relative="1" as="geometry">
            <Array as="points">
              <mxPoint x="795" y="1583" />
            </Array>
          </mxGeometry>
        </mxCell>
        <mxCell id="8x86-gYPFJxtSZaC03kZ-77" value="Email sent" style="verticalAlign=bottom;edgeStyle=elbowEdgeStyle;elbow=vertical;curved=0;rounded=0;dashed=1;dashPattern=2 3;endArrow=block;" edge="1" parent="1" source="8x86-gYPFJxtSZaC03kZ-47" target="8x86-gYPFJxtSZaC03kZ-44">
          <mxGeometry relative="1" as="geometry">
            <Array as="points">
              <mxPoint x="668" y="1635" />
            </Array>
          </mxGeometry>
        </mxCell>
        <mxCell id="8x86-gYPFJxtSZaC03kZ-78" value="Print bill" style="verticalAlign=bottom;edgeStyle=elbowEdgeStyle;elbow=vertical;curved=0;rounded=0;endArrow=block;" edge="1" parent="1" source="8x86-gYPFJxtSZaC03kZ-44" target="8x86-gYPFJxtSZaC03kZ-45">
          <mxGeometry relative="1" as="geometry">
            <Array as="points">
              <mxPoint x="434" y="1687" />
            </Array>
          </mxGeometry>
        </mxCell>
        <mxCell id="8x86-gYPFJxtSZaC03kZ-79" value="Printable bill" style="verticalAlign=bottom;edgeStyle=elbowEdgeStyle;elbow=vertical;curved=0;rounded=0;dashed=1;dashPattern=2 3;endArrow=block;" edge="1" parent="1" source="8x86-gYPFJxtSZaC03kZ-45" target="8x86-gYPFJxtSZaC03kZ-44">
          <mxGeometry relative="1" as="geometry">
            <Array as="points">
              <mxPoint x="437" y="1739" />
            </Array>
          </mxGeometry>
        </mxCell>
        <mxCell id="8x86-gYPFJxtSZaC03kZ-80" value="View users" style="verticalAlign=bottom;edgeStyle=elbowEdgeStyle;elbow=vertical;curved=0;rounded=0;endArrow=block;" edge="1" parent="1" source="8x86-gYPFJxtSZaC03kZ-43" target="8x86-gYPFJxtSZaC03kZ-45">
          <mxGeometry relative="1" as="geometry">
            <Array as="points">
              <mxPoint x="334" y="1791" />
            </Array>
          </mxGeometry>
        </mxCell>
        <mxCell id="8x86-gYPFJxtSZaC03kZ-81" value="Retrieve user list" style="verticalAlign=bottom;edgeStyle=elbowEdgeStyle;elbow=vertical;curved=0;rounded=0;endArrow=block;" edge="1" parent="1" source="8x86-gYPFJxtSZaC03kZ-45" target="8x86-gYPFJxtSZaC03kZ-46">
          <mxGeometry relative="1" as="geometry">
            <Array as="points">
              <mxPoint x="695" y="1843" />
            </Array>
          </mxGeometry>
        </mxCell>
        <mxCell id="8x86-gYPFJxtSZaC03kZ-82" value="User data" style="verticalAlign=bottom;edgeStyle=elbowEdgeStyle;elbow=vertical;curved=0;rounded=0;dashed=1;dashPattern=2 3;endArrow=block;" edge="1" parent="1" source="8x86-gYPFJxtSZaC03kZ-46" target="8x86-gYPFJxtSZaC03kZ-45">
          <mxGeometry relative="1" as="geometry">
            <Array as="points">
              <mxPoint x="698" y="1895" />
            </Array>
          </mxGeometry>
        </mxCell>
        <mxCell id="8x86-gYPFJxtSZaC03kZ-83" value="Display users" style="verticalAlign=bottom;edgeStyle=elbowEdgeStyle;elbow=vertical;curved=0;rounded=0;dashed=1;dashPattern=2 3;endArrow=block;" edge="1" parent="1" source="8x86-gYPFJxtSZaC03kZ-45" target="8x86-gYPFJxtSZaC03kZ-43">
          <mxGeometry relative="1" as="geometry">
            <Array as="points">
              <mxPoint x="337" y="1947" />
            </Array>
          </mxGeometry>
        </mxCell>
        <mxCell id="8x86-gYPFJxtSZaC03kZ-84" value="Generate transaction reports" style="verticalAlign=bottom;edgeStyle=elbowEdgeStyle;elbow=vertical;curved=0;rounded=0;endArrow=block;" edge="1" parent="1" source="8x86-gYPFJxtSZaC03kZ-43" target="8x86-gYPFJxtSZaC03kZ-45">
          <mxGeometry relative="1" as="geometry">
            <Array as="points">
              <mxPoint x="334" y="1999" />
            </Array>
          </mxGeometry>
        </mxCell>
        <mxCell id="8x86-gYPFJxtSZaC03kZ-85" value="Fetch transaction data" style="verticalAlign=bottom;edgeStyle=elbowEdgeStyle;elbow=vertical;curved=0;rounded=0;endArrow=block;" edge="1" parent="1" source="8x86-gYPFJxtSZaC03kZ-45" target="8x86-gYPFJxtSZaC03kZ-46">
          <mxGeometry relative="1" as="geometry">
            <Array as="points">
              <mxPoint x="695" y="2051" />
            </Array>
          </mxGeometry>
        </mxCell>
        <mxCell id="8x86-gYPFJxtSZaC03kZ-86" value="Transaction data" style="verticalAlign=bottom;edgeStyle=elbowEdgeStyle;elbow=vertical;curved=0;rounded=0;dashed=1;dashPattern=2 3;endArrow=block;" edge="1" parent="1" source="8x86-gYPFJxtSZaC03kZ-46" target="8x86-gYPFJxtSZaC03kZ-45">
          <mxGeometry relative="1" as="geometry">
            <Array as="points">
              <mxPoint x="698" y="2103" />
            </Array>
          </mxGeometry>
        </mxCell>
        <mxCell id="8x86-gYPFJxtSZaC03kZ-87" value="Display report" style="verticalAlign=bottom;edgeStyle=elbowEdgeStyle;elbow=vertical;curved=0;rounded=0;dashed=1;dashPattern=2 3;endArrow=block;" edge="1" parent="1" source="8x86-gYPFJxtSZaC03kZ-45" target="8x86-gYPFJxtSZaC03kZ-43">
          <mxGeometry relative="1" as="geometry">
            <Array as="points">
              <mxPoint x="337" y="2155" />
            </Array>
          </mxGeometry>
        </mxCell>
        <mxCell id="8x86-gYPFJxtSZaC03kZ-88" value="View item count" style="verticalAlign=bottom;edgeStyle=elbowEdgeStyle;elbow=vertical;curved=0;rounded=0;endArrow=block;" edge="1" parent="1" source="8x86-gYPFJxtSZaC03kZ-43" target="8x86-gYPFJxtSZaC03kZ-45">
          <mxGeometry relative="1" as="geometry">
            <Array as="points">
              <mxPoint x="334" y="2207" />
            </Array>
          </mxGeometry>
        </mxCell>
        <mxCell id="8x86-gYPFJxtSZaC03kZ-89" value="Fetch inventory data" style="verticalAlign=bottom;edgeStyle=elbowEdgeStyle;elbow=vertical;curved=0;rounded=0;endArrow=block;" edge="1" parent="1" source="8x86-gYPFJxtSZaC03kZ-45" target="8x86-gYPFJxtSZaC03kZ-46">
          <mxGeometry relative="1" as="geometry">
            <Array as="points">
              <mxPoint x="695" y="2259" />
            </Array>
          </mxGeometry>
        </mxCell>
        <mxCell id="8x86-gYPFJxtSZaC03kZ-90" value="Inventory count" style="verticalAlign=bottom;edgeStyle=elbowEdgeStyle;elbow=vertical;curved=0;rounded=0;dashed=1;dashPattern=2 3;endArrow=block;" edge="1" parent="1" source="8x86-gYPFJxtSZaC03kZ-46" target="8x86-gYPFJxtSZaC03kZ-45">
          <mxGeometry relative="1" as="geometry">
            <Array as="points">
              <mxPoint x="698" y="2311" />
            </Array>
          </mxGeometry>
        </mxCell>
        <mxCell id="8x86-gYPFJxtSZaC03kZ-91" value="Display inventory" style="verticalAlign=bottom;edgeStyle=elbowEdgeStyle;elbow=vertical;curved=0;rounded=0;dashed=1;dashPattern=2 3;endArrow=block;" edge="1" parent="1" source="8x86-gYPFJxtSZaC03kZ-45" target="8x86-gYPFJxtSZaC03kZ-43">
          <mxGeometry relative="1" as="geometry">
            <Array as="points">
              <mxPoint x="337" y="2363" />
            </Array>
          </mxGeometry>
        </mxCell>
        <mxCell id="8x86-gYPFJxtSZaC03kZ-92" value="Edit/Update users" style="verticalAlign=bottom;edgeStyle=elbowEdgeStyle;elbow=vertical;curved=0;rounded=0;endArrow=block;" edge="1" parent="1" source="8x86-gYPFJxtSZaC03kZ-43" target="8x86-gYPFJxtSZaC03kZ-45">
          <mxGeometry relative="1" as="geometry">
            <Array as="points">
              <mxPoint x="334" y="2415" />
            </Array>
          </mxGeometry>
        </mxCell>
        <mxCell id="8x86-gYPFJxtSZaC03kZ-93" value="Update user details" style="verticalAlign=bottom;edgeStyle=elbowEdgeStyle;elbow=vertical;curved=0;rounded=0;endArrow=block;" edge="1" parent="1" source="8x86-gYPFJxtSZaC03kZ-45" target="8x86-gYPFJxtSZaC03kZ-46">
          <mxGeometry relative="1" as="geometry">
            <Array as="points">
              <mxPoint x="695" y="2467" />
            </Array>
          </mxGeometry>
        </mxCell>
        <mxCell id="8x86-gYPFJxtSZaC03kZ-94" value="User updated" style="verticalAlign=bottom;edgeStyle=elbowEdgeStyle;elbow=vertical;curved=0;rounded=0;dashed=1;dashPattern=2 3;endArrow=block;" edge="1" parent="1" source="8x86-gYPFJxtSZaC03kZ-46" target="8x86-gYPFJxtSZaC03kZ-45">
          <mxGeometry relative="1" as="geometry">
            <Array as="points">
              <mxPoint x="698" y="2519" />
            </Array>
          </mxGeometry>
        </mxCell>
        <mxCell id="8x86-gYPFJxtSZaC03kZ-95" value="Update confirmation" style="verticalAlign=bottom;edgeStyle=elbowEdgeStyle;elbow=vertical;curved=0;rounded=0;dashed=1;dashPattern=2 3;endArrow=block;" edge="1" parent="1" source="8x86-gYPFJxtSZaC03kZ-45" target="8x86-gYPFJxtSZaC03kZ-43">
          <mxGeometry relative="1" as="geometry">
            <Array as="points">
              <mxPoint x="337" y="2571" />
            </Array>
          </mxGeometry>
        </mxCell>
      </root>
    </mxGraphModel>
  </diagram>
</mxfile>
